<svg xmlns="http://www.w3.org/2000/svg" viewBox="0 0 112.1 40.76"><g style="isolation:isolate"><g style="isolation:isolate"><path d="M40.1,4.14H48V5.73H40.1ZM47.7,16.6c0,.68-.1,1.08-.54,1.32a3.58,3.58,0,0,1-1.76.26,5.3,5.3,0,0,0-.4-1.42h1c.15,0,.19,0,.19-.19V11.72H41.8v6.69H40.37V10.34H47.7Zm-.43-6.82H40.9V6.32h6.37ZM42.87,14a7.45,7.45,0,0,0-.73-1.68l1-.36a7.29,7.29,0,0,1,.8,1.65Zm1.78,1.17v2.67H43.32V15.2H42.17V14.05H44a16.61,16.61,0,0,0,.86-2.15l1.15.46c-.3.54-.59,1.16-.88,1.69h.71V15.2Zm.93-7.62H42.47v.93h3.11ZM53.5,18.41c0-.35-.12-.78-.21-1.24-1.72.32-3.46.64-4.83.91l-.4-1.72c.67-.08,1.48-.19,2.36-.34V13.11H48.29V6.56h2.13V3.79h1.64V6.56h2.17v6.55H52.06v2.66l.88-.14c-.15-.54-.29-1.12-.45-1.63l1.28-.25a30.39,30.39,0,0,1,1.1,4.31Zm-3.89-6.93h1V8.17h-1Zm3.22-3.31H51.9v3.31h.93Z" style="fill:#595959"/></g><g style="isolation:isolate"><path d="M72.81,8.11a21.49,21.49,0,0,1-1.37,6A6.73,6.73,0,0,0,74,16.93a5,5,0,0,0-1.07,1.29,7.65,7.65,0,0,1-2.31-2.51,9,9,0,0,1-2.85,2.82A6.13,6.13,0,0,0,67,17.38l-1,.88a14.62,14.62,0,0,0-2-1.1,16.75,16.75,0,0,1-4.46,1.17,5.4,5.4,0,0,0-.69-1.21,19.62,19.62,0,0,0,3.37-.71c-.72-.29-1.45-.54-2.12-.74a8.45,8.45,0,0,0,.7-.92l-1.44.08-.14-1.26,2.45-.11a9.91,9.91,0,0,0,.56-1H59.83V9.59h2.85V9.14H60.26V7.47H59.05V6.13h1.21V4.52h2.42v-1h1.44v1h2.56V6.13h1.08V7.47H66.68V9.14H64.12v.45H67v1.16c1-1.7,1.58-4.41,1.86-7.15l1.6.21c-.12.89-.24,1.78-.42,2.64h3.78V8.11ZM61.37,11.33h1.31v-.59H61.37Zm.45-5.61v.51h.86V5.72ZM62.68,8V7.37h-.86V8Zm-.43,7.14c.53.17,1.07.36,1.59.57A2.78,2.78,0,0,0,65,14.53l-2.42.12Zm4.33-.66a3.34,3.34,0,0,1-1.21,1.88c.58.26,1.09.51,1.53.73a7,7,0,0,0,2.84-3,21.2,21.2,0,0,1-.94-3.17A7.46,7.46,0,0,1,68.19,12,10.58,10.58,0,0,0,67,10.83v1.64H63.84l-.51.93,1.87-.1v-.56h1.48v.5l.51,0,0,1.19ZM64.12,5.72v.51H65V5.72ZM65,8V7.37h-.92V8Zm-.92,2.79v.59h1.27v-.59Zm5.6-2.63a25.22,25.22,0,0,0,.82,3.82,21.25,21.25,0,0,0,.68-3.82Z" style="fill:#595959"/></g><g style="isolation:isolate"><path d="M90,12.58a9.3,9.3,0,0,0,3.1,1.85,6.77,6.77,0,0,0-1.25,1.47,10.91,10.91,0,0,1-2.5-1.67V15.4h-2.9v1h5.19V18H79.5V16.44h5v-1H81.68v-1A11.2,11.2,0,0,1,79.15,16a7.64,7.64,0,0,0-1.21-1.45,9.47,9.47,0,0,0,3.21-2H78.08V11h3V6.29h-2.2V4.76h2.2V3.57H83V4.76h5V3.57h2V4.76h2.18V6.29H90V11h2.94v1.54Zm-1,1.33a8.91,8.91,0,0,1-1.15-1.33H83.34a9.45,9.45,0,0,1-1.14,1.33h2.3v-1h1.93v1ZM83,6.29V7h5v-.7ZM83,9h5V8.3H83Zm0,2h5v-.72H83Z" style="fill:#595959"/></g><g style="isolation:isolate"><path d="M102.17,11.91l.43,1.69c-1.65.82-3.44,1.68-4.89,2.33L97,14c.59-.21,1.29-.46,2.07-.78V9H97.3V7.22H99V3.76h1.75V7.22h1.48V9h-1.48V12.5Zm7.11,4.53c.86,0,1-.37,1.16-2a4.89,4.89,0,0,0,1.66.68c-.26,2.23-.8,3-2.66,3H106c-2.15,0-2.77-.59-2.77-2.77V11.25l-.86.36-.7-1.67,1.56-.67V5.08h1.82V8.49l1.32-.56V3.54h1.77V7.17l1.73-.75,1.44.46-.06.29a52.08,52.08,0,0,1-.71,7L109,13.76c.17-1.29.3-3.31.37-5.19l-1.23.54v5.62h-1.77V9.88l-1.32.57v4.92c0,.93.14,1.07,1.11,1.07Z" style="fill:#595959"/></g></g><path d="M40.36,26.68h2.31c2.45,0,4.07,1.18,4.07,4s-1.62,4.06-4,4.06H40.36Zm2.19,6.48c1.3,0,2.22-.59,2.22-2.5s-.92-2.45-2.22-2.45h-.26v4.95Z" style="fill:#595959"/><path d="M48.23,26.68h2.31c2.45,0,4.08,1.18,4.08,4s-1.63,4.06-4,4.06H48.23Zm2.19,6.48c1.3,0,2.22-.59,2.22-2.5s-.92-2.45-2.22-2.45h-.26v4.95Z" style="fill:#595959"/><path d="M58.07,33.71l1.09-1.33a3.22,3.22,0,0,0,2,.82c.72,0,1-.26,1-.7s-.44-.61-1.13-.9l-1-.44A2.34,2.34,0,0,1,58.37,29a2.64,2.64,0,0,1,2.92-2.43,3.74,3.74,0,0,1,2.61,1.06l-1,1.21a2.62,2.62,0,0,0-1.65-.62c-.6,0-1,.24-1,.67s.5.62,1.22.9l1,.4a2.23,2.23,0,0,1,1.59,2.2c0,1.34-1.12,2.52-3.07,2.52A4.47,4.47,0,0,1,58.07,33.71Z" style="fill:#595959"/><path d="M65.22,32.44V30.07h-.83V28.65l.94-.08L65.54,27h1.6v1.62h1.45v1.5H67.14v2.35c0,.68.32.95.78.95a2.32,2.32,0,0,0,.56-.11l.3,1.38a4.36,4.36,0,0,1-1.39.23C65.84,34.87,65.22,33.9,65.22,32.44Z" style="fill:#595959"/><path d="M69.19,31.65a3,3,0,1,1,6,0,3,3,0,1,1-6,0Zm4,0c0-1-.32-1.67-1-1.67s-1,.64-1,1.67.32,1.66,1,1.66S73.24,32.66,73.24,31.65Z" style="fill:#595959"/><path d="M76.42,28.57H78l.13,1.07h0a2.09,2.09,0,0,1,1.75-1.22,1.66,1.66,0,0,1,.74.13l-.32,1.65a2.7,2.7,0,0,0-.67-.1,1.5,1.5,0,0,0-1.33,1.11v3.51H76.42Z" style="fill:#595959"/><path d="M81.34,37l.35-1.45a2,2,0,0,0,.41.07,1,1,0,0,0,1-.73l.09-.32-2.36-6h1.94l.82,2.55c.18.56.31,1.13.47,1.74h.06c.12-.58.26-1.16.4-1.74l.71-2.55h1.83L85,34.73c-.61,1.58-1.27,2.35-2.72,2.35A2.86,2.86,0,0,1,81.34,37Z" style="fill:#595959"/><path d="M90.63,26.68h1.93v3.06h2.65V26.68h1.91v8H95.21V31.41H92.56v3.31H90.63Z" style="fill:#595959"/><path d="M98.77,32.37v-3.8h1.92v3.57c0,.85.23,1.09.71,1.09a1.17,1.17,0,0,0,1-.63v-4h1.92v6.15h-1.56l-.14-.85h-.05a2.38,2.38,0,0,1-1.92,1C99.34,34.87,98.77,33.91,98.77,32.37Z" style="fill:#595959"/><path d="M107.59,34.06h0l-.15.66h-1.51V26.09h1.92v2.07l0,.92a2.45,2.45,0,0,1,1.59-.66c1.47,0,2.41,1.23,2.41,3.11,0,2.13-1.26,3.34-2.58,3.34A2.19,2.19,0,0,1,107.59,34.06Zm2.19-2.49c0-1.08-.31-1.58-1-1.58a1.31,1.31,0,0,0-1,.51v2.44a1.37,1.37,0,0,0,.92.35C109.31,33.29,109.78,32.81,109.78,31.57Z" style="fill:#595959"/><path d="M6.43,23.57c.16.37.39.93.62,1.64.55,1.72.33,1.9.8,2.83a4.94,4.94,0,0,0,2,2.18h0a4.9,4.9,0,0,0,1.91.5c1.44.12,2.76.14,2.76.14a23.22,23.22,0,0,0-5-5.53A8,8,0,0,0,6.43,23.57Z" style="fill:#d9d9d9"/><path d="M6.43,23.57s4.58-.94,7.19,1.19,1,6.11,1,6.11S11,25.27,6.43,23.57Z" style="fill:#d9d9d9"/><path d="M25.46,32.27l-8.3,5a.52.52,0,0,1-.7-.17l-1-1.62a.5.5,0,0,1,.17-.68l8.74-5.25a.5.5,0,0,1,.68.17l.81.27C25.89,30.82,25.93,32,25.46,32.27Z" style="fill:#d9d9d9"/><circle cx="23.4" cy="6.24" r="2.4" style="fill:#d9d9d9"/><path d="M16.3,20.78H32.58a1.11,1.11,0,0,1,1.11,1.11v.68a1.09,1.09,0,0,1-1.09,1.09H16.3a1.09,1.09,0,0,1-1.09-1.09v-.7a1.09,1.09,0,0,1,1.09-1.09Z" transform="translate(46.67 -2.22) rotate(90)" style="fill:#d9d9d9"/><path d="M10.25,3H22.7a1.05,1.05,0,0,1,1.05,1.05v.83a1,1,0,0,1-1,1H10.39A1.18,1.18,0,0,1,9.2,4.78V4.09a1,1,0,0,1,1-1Z" transform="translate(1.38 -3.49) rotate(12.62)" style="fill:#d9d9d9"/><path d="M12.21,3.58v7.68a1.1,1.1,0,0,1-1.1,1.1h-.7a1.09,1.09,0,0,1-1.09-1.09V2.88a1.21,1.21,0,0,1,1.09-1.09h0A1.8,1.8,0,0,1,12.21,3.58Z" style="fill:#d9d9d9"/><path d="M10.24,11.12h14.7a1,1,0,0,1,1,1V13a1,1,0,0,1-1,1H10.4a1.19,1.19,0,0,1-1.19-1.19v-.69a1,1,0,0,1,1-1Z" transform="translate(3.17 -3.54) rotate(12.62)" style="fill:#d9d9d9"/><path d="M19.14,17.5l-16-3.68A1.67,1.67,0,0,0,1,15.52V34.75a1.91,1.91,0,0,0,.92,1.53l8,4.3a1.93,1.93,0,0,0,1.72,0l8-4.78a1.91,1.91,0,0,0,.85-1.49V19.19A1.83,1.83,0,0,0,19.14,17.5ZM18,32.47a1.41,1.41,0,0,1-.63,1.11l-5.94,3.55a1.42,1.42,0,0,1-1.27,0L4.19,34a1.45,1.45,0,0,1-.68-1.14V18.53a1.23,1.23,0,0,1,1.58-1.25L17,20a1.37,1.37,0,0,1,1,1.26Z" style="fill:#d9d9d9"/><path d="M5.42,21.88c.16.37.39.93.62,1.64a20.52,20.52,0,0,0,.8,2.83,4.94,4.94,0,0,0,2,2.18h0a4.9,4.9,0,0,0,1.92.5c1.43.12,2.76.14,2.76.14a23.22,23.22,0,0,0-5-5.53A8,8,0,0,0,5.42,21.88Z" style="fill:#a3bb6d"/><path d="M5.42,21.88s4.58-.94,7.19,1.19,1,6.11,1,6.11S10,23.58,5.42,21.88Z" style="fill:#84aa42"/><path d="M24.45,30.58l-8.3,5a.52.52,0,0,1-.7-.17l-1-1.62a.5.5,0,0,1,.17-.68l8.74-5.25a.5.5,0,0,1,.68.17l.81.27C24.88,29.13,24.92,30.3,24.45,30.58Z" style="fill:#494949"/><circle cx="22.39" cy="4.55" r="2.4" style="fill:#494949"/><path d="M15.28,19.09H31.57a1.11,1.11,0,0,1,1.11,1.11v.68A1.09,1.09,0,0,1,31.58,22H15.28a1.09,1.09,0,0,1-1.09-1.09v-.7a1.09,1.09,0,0,1,1.09-1.09Z" transform="translate(43.97 -2.9) rotate(90)" style="fill:#494949"/><path d="M9.23,1.35H21.69A1.05,1.05,0,0,1,22.74,2.4v.83a1,1,0,0,1-1,1H9.38A1.18,1.18,0,0,1,8.19,3.09V2.4a1,1,0,0,1,1-1Z" transform="translate(0.99 -3.31) rotate(12.62)" style="fill:#494949"/><path d="M11.2,1.89V9.57a1.1,1.1,0,0,1-1.1,1.1H9.4A1.09,1.09,0,0,1,8.31,9.58V1.19A1.2,1.2,0,0,1,9.4.1h0A1.8,1.8,0,0,1,11.2,1.89Z" style="fill:#494949"/><path d="M9.23,9.43h14.7a1,1,0,0,1,1,1v.84a1,1,0,0,1-1,1H9.39a1.19,1.19,0,0,1-1.19-1.19v-.69A1,1,0,0,1,9.23,9.43Z" transform="translate(2.78 -3.36) rotate(12.62)" style="fill:#494949"/><path d="M18.13,15.8l-16-3.67A1.67,1.67,0,0,0,0,13.83V33.06a1.91,1.91,0,0,0,.92,1.53l8,4.3a1.93,1.93,0,0,0,1.72,0l8-4.78a1.91,1.91,0,0,0,.85-1.49V17.5A1.84,1.84,0,0,0,18.13,15.8ZM17,30.78a1.43,1.43,0,0,1-.63,1.11l-5.94,3.55a1.42,1.42,0,0,1-1.27,0l-6-3.19a1.46,1.46,0,0,1-.68-1.14V16.84a1.23,1.23,0,0,1,1.58-1.25L16,18.31a1.36,1.36,0,0,1,1,1.26Z" style="fill:#494949"/></svg>